<?xml version='1.0' encoding='utf-8'?>
<svg xmlns:dc="http://purl.org/dc/elements/1.1/" xmlns:cc="http://creativecommons.org/ns#" xmlns:rdf="http://www.w3.org/1999/02/22-rdf-syntax-ns#" xmlns="http://www.w3.org/2000/svg" version="1.1" width="100%" height="100%" viewBox="0 0 18 18" id="svg2">
  <metadata id="metadata8">
    <rdf:RDF>
      <cc:Work rdf:about="">
        <dc:format>image/svg+xml</dc:format>
        <dc:type rdf:resource="http://purl.org/dc/dcmitype/StillImage"/>
        <dc:title/>
      </cc:Work>
    </rdf:RDF>
  </metadata>
  <defs id="defs6"/>
  <rect width="18" height="18" x="0" y="0" id="canvas" style="fill:none;stroke:none;visibility:hidden"/>
  <path d="M 1,0 1,14 13,14 13,0 1,0 z M 3,2 11,2 11,12 3,12 3,2 z M 7,3 4,6 6,6 8,6 10,6 7,3 z M 4,8 7,11 10,8 8,8 6,8 4,8 z" id="halo" style="fill:#ffffff;stroke:#ffffff;stroke-width:4.0;opacity:1.0;" transform="translate(2.0,2.0)"/>
<path d="M 1,0 1,14 13,14 13,0 1,0 z M 3,2 11,2 11,12 3,12 3,2 z M 7,3 4,6 6,6 8,6 10,6 7,3 z M 4,8 7,11 10,8 8,8 6,8 4,8 z" id="elevator" style="fill:#0092da;fill-opacity:1" transform="translate(2.0,2.0)"/>
</svg>
