<?xml version='1.0' encoding='utf-8'?>
<svg xmlns:dc="http://purl.org/dc/elements/1.1/" xmlns:cc="http://creativecommons.org/ns#" xmlns:rdf="http://www.w3.org/1999/02/22-rdf-syntax-ns#" xmlns="http://www.w3.org/2000/svg" version="1.1" width="100%" height="100%" viewBox="0 0 18 18" id="svg2">
  <metadata id="metadata8">
    <rdf:RDF>
      <cc:Work rdf:about="">
        <dc:format>image/svg+xml</dc:format>
        <dc:type rdf:resource="http://purl.org/dc/dcmitype/StillImage"/>
        <dc:title/>
      </cc:Work>
    </rdf:RDF>
  </metadata>
  <defs id="defs6"/>
  <rect width="18" height="18" x="0" y="0" id="canvas" style="fill:none;stroke:none;visibility:hidden"/>
  <path d="m 0,0 0,10 c 2,3 5.24979,2.039143 5.24979,4 L 6.25,14 6.25,4 C 6.25,1.0168774 2,3 0,0 z M 14,0 C 12,3 7.75,1.0449388 7.75,4 l 0,10 1,0 C 8.75,12.020266 12,13 14,10 z" id="halo" style="fill:#ffffff;stroke:#ffffff;stroke-width:4.0;opacity:1.0;" transform="translate(2.0,2.0)"/>
<path d="m 0,0 0,10 c 2,3 5.24979,2.039143 5.24979,4 L 6.25,14 6.25,4 C 6.25,1.0168774 2,3 0,0 z M 14,0 C 12,3 7.75,1.0449388 7.75,4 l 0,10 1,0 C 8.75,12.020266 12,13 14,10 z" id="library" style="fill:#734a08;fill-opacity:1" transform="translate(2.0,2.0)"/>
</svg>
