<?xml version='1.0' encoding='utf-8'?>
<svg xmlns:dc="http://purl.org/dc/elements/1.1/" xmlns:cc="http://creativecommons.org/ns#" xmlns:rdf="http://www.w3.org/1999/02/22-rdf-syntax-ns#" xmlns="http://www.w3.org/2000/svg" version="1.1" width="100%" height="100%" viewBox="0 0 18 18" id="svg2">
  <metadata id="metadata8">
    <rdf:RDF>
      <cc:Work rdf:about="">
        <dc:format>image/svg+xml</dc:format>
        <dc:type rdf:resource="http://purl.org/dc/dcmitype/StillImage"/>
        <dc:title/>
      </cc:Work>
    </rdf:RDF>
  </metadata>
  <defs id="defs6"/>
  <rect width="18" height="18" x="0" y="0" id="canvas" style="fill:none;stroke:none;visibility:hidden"/>
  <path d="M 8,1 C 5,3 3,1 3,1 l 0,7 c 0,0 2,2 5,0 3,-2 5,0 5,0 L 13,1 C 13,1 11,-1 8,1 z M 1.5,0.25 C 1.25,0.25 1,0.5 1,1 l 0,12 c 0,1 1,1 1,0 L 2,1 C 2,0.5 1.75,0.25 1.5,0.25 z" id="halo" style="fill:#ffffff;stroke:#ffffff;stroke-width:4.0;opacity:1.0;" transform="translate(2.0,2.0)"/>
<path d="M 8,1 C 5,3 3,1 3,1 l 0,7 c 0,0 2,2 5,0 3,-2 5,0 5,0 L 13,1 C 13,1 11,-1 8,1 z M 1.5,0.25 C 1.25,0.25 1,0.5 1,1 l 0,12 c 0,1 1,1 1,0 L 2,1 C 2,0.5 1.75,0.25 1.5,0.25 z" id="embassy" style="fill:#0092da;fill-opacity:1" transform="translate(2.0,2.0)"/>
</svg>
