<?xml version='1.0' encoding='utf-8'?>
<svg xmlns:dc="http://purl.org/dc/elements/1.1/" xmlns:cc="http://creativecommons.org/ns#" xmlns:rdf="http://www.w3.org/1999/02/22-rdf-syntax-ns#" xmlns="http://www.w3.org/2000/svg" version="1.1" width="100%" height="100%" viewBox="0 0 18 18" id="svg2">
  <metadata id="metadata8">
    <rdf:RDF>
      <cc:Work rdf:about="">
        <dc:format>image/svg+xml</dc:format>
        <dc:type rdf:resource="http://purl.org/dc/dcmitype/StillImage"/>
        <dc:title/>
      </cc:Work>
    </rdf:RDF>
  </metadata>
  <defs id="defs6"/>
  <rect width="18" height="18" x="0" y="0" id="canvas" style="fill:none;stroke:none;visibility:hidden"/>
  <path d="M 3,1 0,3 1,6.35 3,5 3,13 11,13 11,5 13,6.35 14,3 11,1 9,1 C 9,2 8,3 7,3 6,3 5,2 5,1 z" id="halo" style="fill:#ffffff;stroke:#ffffff;stroke-width:4.0;opacity:1.0;" transform="translate(2.0,2.0)"/>
<path d="M 3,1 0,3 1,6.35 3,5 3,13 11,13 11,5 13,6.35 14,3 11,1 9,1 C 9,2 8,3 7,3 6,3 5,2 5,1 z" id="clothes" style="fill:#ac39ac;fill-opacity:1" transform="translate(2.0,2.0)"/>
</svg>
