<svg xmlns:dc="http://purl.org/dc/elements/1.1/" xmlns:cc="http://creativecommons.org/ns#" xmlns:rdf="http://www.w3.org/1999/02/22-rdf-syntax-ns#" xmlns:svg="http://www.w3.org/2000/svg" xmlns="http://www.w3.org/2000/svg" version="1.1" width="100%" height="100%" viewBox="0 0 16 16" id="svg2">
  <metadata id="metadata8">
    <rdf:RDF>
      <cc:Work rdf:about="">
        <dc:format>image/svg+xml</dc:format>
        <dc:type rdf:resource="http://purl.org/dc/dcmitype/StillImage"/>
        <dc:title/>
      </cc:Work>
    </rdf:RDF>
  </metadata>
  <defs id="defs6"/>
  <rect width="16" height="16" x="0" y="0" id="canvas" style="fill:none;stroke:none;visibility:hidden"/><rect x="0" y="0" width="16" height="16" rx="2" ry="2" id="shield" style="fill:#ffffff;stroke:none;"/>
  <path d="M 6,0 1,8 c 1.4241085,0.3815887 3,2 3,4 l 6,0 c 0,-2 1.513903,-3.6018016 3,-4 L 8,0 8,5.28125 C 8.5968956,5.6272926 9,6.2603957 9,7 9,8.1045695 8.1045695,9 7,9 5.8954305,9 5,8.1045695 5,7 5,6.2603957 5.4031044,5.6272926 6,5.28125 z m -2,13 -0.5,1 7,0 -0.5,-1 z" id="stationery" style="fill:#ac39ac;fill-opacity:1" transform="translate(1,1)"/>
</svg>
